<svg width="400" height="399" viewBox="0 0 400 399" fill="none" xmlns="http://www.w3.org/2000/svg">
<path d="M303.843 24.6027C317.277 43.834 301.526 75.0141 321.46 89.4781C340.864 103.558 364.702 80.4799 382.989 92.5994C410.117 110.579 405.164 192.846 365.5 243.96C353.573 259.332 343.606 265.312 339.191 282.697C329.712 320.027 363.025 342.233 356.686 360.695C342.412 402.266 122.893 437.149 34.8127 312.214C-6.32449 253.865 -12.4803 169.607 24.2751 105.612C90.6898 -10.023 273.699 -18.5503 303.843 24.6027Z" fill="#EBF2F9"/>
<path d="M341.375 297.106L215.443 308.079C202.723 309.187 192.288 299.433 192.288 286.279V57.0731C192.288 43.9194 202.723 33.8229 215.443 34.5143L341.375 41.3572C352.352 41.9533 361.154 52.175 361.154 64.1934V273.621C361.156 285.639 352.354 296.15 341.375 297.106Z" fill="url(#paint0_linear_2768_26039)"/>
<path d="M314.055 299.486L184.15 310.804C171.014 311.95 160.234 302.051 160.234 288.681V55.7215C160.234 42.353 171.014 32.1 184.15 32.8141L314.055 39.8733C325.366 40.4879 334.433 50.8689 334.433 63.0666V275.624C334.433 287.823 325.366 298.501 314.055 299.486Z" fill="url(#paint1_linear_2768_26039)"/>
<path opacity="0.3" d="M287.228 280.398L160.234 290.001V54.4014L287.228 59.8416C298.871 60.3409 308.203 70.7718 308.203 83.1459V256.407C308.203 268.781 298.871 279.518 287.228 280.398Z" fill="url(#paint2_linear_2768_26039)"/>
<path opacity="0.6" d="M321.612 257.178L291.156 259.137V196.922L321.612 195.983V257.178Z" fill="white"/>
<path d="M24.544 131.392V189.076C24.544 201.794 27.257 214.366 32.5023 225.954L100.681 376.563C105.339 386.852 115.949 393.112 127.206 392.212L307.708 377.798C315.261 377.195 322.13 373.192 326.378 366.919L333.158 356.904L24.544 131.392Z" fill="#97A6B7"/>
<path d="M185 125.226H36.8471C27.6028 125.226 22.4286 130.991 25.3692 138.197L114.357 356.295C118.84 367.282 131.786 375.748 143.139 375.022L323.228 363.518C333.5 362.862 336.745 353.876 330.623 343.608L207.812 137.608C203.71 130.732 193.536 125.226 185 125.226Z" fill="white"/>
<path d="M141.061 370.143C132.506 370.678 122.704 364.29 119.288 356.006L29.4891 138.184C27.2385 132.725 31.1508 128.325 38.163 128.319L186.727 128.205C193.208 128.2 200.956 132.402 204.047 137.622L326.206 343.868C330.805 351.634 328.307 358.422 320.551 358.907L141.061 370.143Z" fill="url(#paint3_linear_2768_26039)"/>
<path d="M175.551 139.163L61.6908 139.572C56.3871 139.591 53.4665 142.797 55.1907 146.762L123.33 303.449C125.67 308.83 132.565 312.991 138.693 312.698L269.565 306.431C275.272 306.158 277.484 301.734 274.547 296.592L188.531 146.044C186.341 142.214 180.543 139.146 175.551 139.163Z" fill="url(#paint4_linear_2768_26039)"/>
<path d="M184.276 356.868C173.869 357.491 161.626 349.704 157.106 339.664C152.662 329.792 157.385 321.467 167.521 320.956L251.431 316.73C261.084 316.243 273.147 323.474 278.443 332.986C283.828 342.656 280.263 351.122 270.367 351.714L184.276 356.868Z" fill="#B7C0CE"/>
<path d="M252.21 318.171L168.21 322.434C158.91 322.907 154.606 330.526 158.695 339.577C162.846 348.77 174.018 355.868 183.546 355.302L269.54 350.189C278.604 349.65 281.873 341.932 276.951 333.069C272.101 324.339 261.07 317.721 252.21 318.171Z" fill="white"/>
<path d="M231.927 335.547C235.613 342.693 232.684 348.899 225.317 349.33C217.922 349.762 208.998 344.208 205.449 337.004C201.943 329.886 205.036 323.876 212.293 323.501C219.524 323.129 228.285 328.488 231.927 335.547Z" fill="url(#paint5_linear_2768_26039)"/>
<path d="M229.174 335.698C232.074 341.346 229.743 346.235 223.929 346.572C218.096 346.91 211.053 342.535 208.239 336.85C205.452 331.221 207.884 326.452 213.632 326.15C219.361 325.852 226.302 330.105 229.174 335.698Z" fill="url(#paint6_linear_2768_26039)"/>
<path d="M252.881 342.561L244.517 326.798C244.102 326.015 244.845 325.559 245.715 326.061L258.471 333.404C259.055 333.74 259.384 334.35 259.186 334.73L254.805 343.145C254.5 343.727 253.308 343.364 252.881 342.561Z" fill="url(#paint7_linear_2768_26039)"/>
<path d="M192.183 346.032L184.513 329.973C184.132 329.176 182.947 328.815 182.598 329.39L177.465 337.849C177.229 338.239 177.522 338.863 178.101 339.207L190.894 346.811C191.776 347.335 192.574 346.851 192.183 346.032Z" fill="url(#paint8_linear_2768_26039)"/>
<path opacity="0.3" d="M100.951 167.352C103.044 171.788 103.946 175.423 102.949 175.436C101.952 175.449 99.4448 171.831 97.3678 167.391C95.3078 162.99 94.4485 159.444 95.4316 159.435C96.4146 159.427 98.8786 162.955 100.951 167.352Z" fill="url(#paint9_linear_2768_26039)"/>
<path opacity="0.3" d="M105.451 156.132C110.817 156.089 115.468 156.688 115.852 157.468C116.236 158.249 112.197 158.922 106.817 158.967C101.422 159.013 96.7361 158.412 96.3662 157.627C95.9963 156.843 100.069 156.175 105.451 156.132Z" fill="url(#paint10_linear_2768_26039)"/>
<path opacity="0.3" d="M110.034 186.606C112.207 191.214 113.162 194.996 112.149 195.013C111.135 195.031 108.548 191.275 106.389 186.662C104.249 182.091 103.339 178.403 104.339 178.391C105.337 178.378 107.88 182.038 110.034 186.606Z" fill="url(#paint11_linear_2768_26039)"/>
<path d="M124.148 167.105C126.33 171.514 127.314 175.126 126.33 175.138C125.345 175.151 122.773 171.555 120.605 167.143C118.456 162.77 117.515 159.245 118.487 159.236C119.458 159.228 121.985 162.734 124.148 167.105Z" fill="white"/>
<path d="M133.618 186.239C135.884 190.817 136.926 194.575 135.924 194.592C134.923 194.609 132.269 190.878 130.017 186.295C127.785 181.752 126.791 178.089 127.78 178.075C128.765 178.062 131.372 181.701 133.618 186.239Z" fill="white"/>
<path opacity="0.3" d="M114.492 174.907C119.948 174.838 124.682 175.439 125.081 176.248C125.479 177.06 121.381 177.777 115.91 177.851C110.425 177.925 105.655 177.322 105.271 176.506C104.885 175.692 109.021 174.976 114.492 174.907Z" fill="url(#paint12_linear_2768_26039)"/>
<path opacity="0.3" d="M123.883 194.408C129.431 194.31 134.253 194.913 134.667 195.755C135.081 196.599 130.919 197.366 125.357 197.468C119.779 197.571 114.92 196.966 114.52 196.118C114.121 195.27 118.319 194.506 123.883 194.408Z" fill="url(#paint13_linear_2768_26039)"/>
<path opacity="0.3" d="M134.797 166.991C137.02 171.387 138.042 174.989 137.064 175C136.083 175.013 133.484 171.428 131.275 167.028C129.085 162.666 128.107 159.152 129.074 159.144C130.04 159.136 132.594 162.633 134.797 166.991Z" fill="url(#paint14_linear_2768_26039)"/>
<path d="M138.804 155.872C144.08 155.83 148.677 156.424 149.082 157.197C149.489 157.973 145.541 158.639 140.252 158.683C134.948 158.728 130.318 158.132 129.923 157.354C129.531 156.576 133.513 155.913 138.804 155.872Z" fill="white"/>
<path d="M144.446 186.07C146.755 190.635 147.835 194.381 146.839 194.398C145.843 194.415 143.16 190.695 140.865 186.125C138.59 181.596 137.559 177.944 138.54 177.93C139.522 177.917 142.157 181.545 144.446 186.07Z" fill="white"/>
<path d="M157.6 166.748C159.909 171.117 161.011 174.696 160.044 174.709C159.075 174.722 156.413 171.158 154.117 166.785C151.841 162.45 150.785 158.956 151.74 158.947C152.694 158.94 155.309 162.417 157.6 166.748Z" fill="white"/>
<path opacity="0.3" d="M167.622 185.709C170.021 190.245 171.183 193.967 170.199 193.984C169.214 194.001 166.467 190.305 164.083 185.764C161.72 181.263 160.606 177.632 161.577 177.619C162.548 177.607 165.245 181.213 167.622 185.709Z" fill="url(#paint15_linear_2768_26039)"/>
<path d="M148.394 174.48C153.756 174.411 158.435 175.008 158.856 175.81C159.278 176.614 155.274 177.325 149.897 177.398C144.507 177.47 139.794 176.871 139.384 176.063C138.977 175.255 143.016 174.547 148.394 174.48Z" fill="white"/>
<path d="M158.352 193.801C163.804 193.705 168.565 194.303 169.003 195.136C169.442 195.972 165.379 196.731 159.914 196.832C154.434 196.933 149.634 196.333 149.21 195.494C148.786 194.654 152.885 193.897 158.352 193.801Z" fill="white"/>
<path d="M168.069 166.637C170.418 170.993 171.557 174.564 170.594 174.575C169.631 174.588 166.941 171.034 164.606 166.674C162.29 162.35 161.199 158.866 162.149 158.859C163.098 158.851 165.74 162.318 168.069 166.637Z" fill="white"/>
<path d="M171.597 155.614C176.785 155.573 181.328 156.162 181.756 156.929C182.184 157.697 178.326 158.357 173.125 158.401C167.91 158.445 163.334 157.855 162.918 157.084C162.502 156.313 166.394 155.655 171.597 155.614Z" fill="white"/>
<path d="M178.262 185.544C180.701 190.068 181.901 193.778 180.923 193.795C179.944 193.812 177.168 190.126 174.743 185.599C172.338 181.111 171.189 177.491 172.153 177.479C173.119 177.464 175.845 181.059 178.262 185.544Z" fill="white"/>
<path d="M190.485 166.398C192.918 170.728 194.135 174.276 193.183 174.288C192.231 174.3 189.482 170.768 187.063 166.433C184.664 162.135 183.496 158.673 184.435 158.666C185.374 158.659 188.074 162.104 190.485 166.398Z" fill="white"/>
<path d="M201.04 185.189C203.565 189.685 204.844 193.371 203.878 193.388C202.911 193.405 200.074 189.742 197.562 185.243C195.072 180.783 193.843 177.186 194.797 177.173C195.752 177.16 198.538 180.734 201.04 185.189Z" fill="white"/>
<path opacity="0.3" d="M181.718 174.059C186.989 173.992 191.612 174.582 192.056 175.379C192.501 176.175 188.589 176.88 183.304 176.951C178.005 177.022 173.348 176.429 172.916 175.628C172.485 174.827 176.431 174.125 181.718 174.059Z" fill="url(#paint16_linear_2768_26039)"/>
<path d="M192.222 193.204C197.58 193.111 202.285 193.702 202.746 194.529C203.208 195.357 199.24 196.108 193.87 196.208C188.484 196.307 183.744 195.711 183.295 194.879C182.847 194.048 186.851 193.3 192.222 193.204Z" fill="white"/>
<path opacity="0.3" d="M142.828 212.611C144.688 216.396 145.554 219.502 144.749 219.521C143.944 219.54 141.781 216.463 139.931 212.675C138.092 208.913 137.259 205.87 138.054 205.853C138.851 205.838 140.982 208.852 142.828 212.611Z" fill="url(#paint17_linear_2768_26039)"/>
<path opacity="0.3" d="M146.049 202.914C150.403 202.827 154.198 203.3 154.538 203.97C154.878 204.64 151.625 205.257 147.263 205.347C142.891 205.436 139.071 204.963 138.741 204.29C138.411 203.617 141.686 203.001 146.049 202.914Z" fill="url(#paint18_linear_2768_26039)"/>
<path opacity="0.3" d="M150.882 229C152.801 232.905 153.706 236.111 152.891 236.134C152.074 236.157 149.855 232.986 147.946 229.078C146.051 225.197 145.177 222.056 145.984 222.036C146.789 222.017 148.977 225.123 150.882 229Z" fill="url(#paint19_linear_2768_26039)"/>
<path opacity="0.3" d="M161.606 212.191C163.525 215.957 164.444 219.045 163.647 219.065C162.851 219.085 160.646 216.025 158.736 212.255C156.84 208.513 155.952 205.486 156.74 205.469C157.529 205.453 159.701 208.451 161.606 212.191Z" fill="url(#paint20_linear_2768_26039)"/>
<path opacity="0.3" d="M169.911 228.495C171.89 232.38 172.85 235.568 172.044 235.591C171.236 235.613 168.974 232.459 167.003 228.571C165.047 224.712 164.121 221.588 164.919 221.568C165.717 221.548 167.947 224.638 169.911 228.495Z" fill="url(#paint21_linear_2768_26039)"/>
<path opacity="0.3" d="M154.06 218.969C158.472 218.862 162.324 219.336 162.673 220.027C163.023 220.718 159.731 221.369 155.311 221.477C150.881 221.586 147.004 221.111 146.662 220.417C146.324 219.724 149.64 219.075 154.06 218.969Z" fill="url(#paint22_linear_2768_26039)"/>
<path opacity="0.3" d="M162.324 235.529C166.796 235.403 170.705 235.877 171.066 236.589C171.428 237.302 168.096 237.986 163.616 238.117C159.125 238.248 155.191 237.772 154.84 237.055C154.487 236.339 157.843 235.656 162.324 235.529Z" fill="url(#paint23_linear_2768_26039)"/>
<path d="M170.24 211.998C172.186 215.755 173.129 218.836 172.337 218.855C171.543 218.873 169.319 215.822 167.383 212.062C165.46 208.329 164.548 205.308 165.333 205.293C166.117 205.276 168.309 208.267 170.24 211.998Z" fill="white"/>
<path d="M173.136 202.376C177.43 202.291 181.19 202.76 181.544 203.425C181.898 204.091 178.706 204.702 174.405 204.79C170.095 204.879 166.312 204.408 165.965 203.741C165.619 203.072 168.833 202.462 173.136 202.376Z" fill="white"/>
<path d="M178.662 228.261C180.668 232.137 181.654 235.318 180.85 235.34C180.046 235.363 177.763 232.216 175.765 228.338C173.782 224.488 172.83 221.371 173.626 221.351C174.421 221.332 176.67 224.414 178.662 228.261Z" fill="white"/>
<path d="M188.755 211.584C190.757 215.321 191.754 218.387 190.969 218.405C190.182 218.424 187.919 215.388 185.926 211.646C183.947 207.932 182.982 204.927 183.759 204.911C184.537 204.897 186.768 207.873 188.755 211.584Z" fill="white"/>
<path d="M197.424 227.762C199.488 231.616 200.528 234.78 199.733 234.803C198.936 234.825 196.613 231.696 194.557 227.839C192.516 224.009 191.511 220.909 192.298 220.889C193.085 220.869 195.374 223.936 197.424 227.762Z" fill="white"/>
<path d="M181.507 218.31C185.856 218.206 189.672 218.675 190.036 219.361C190.402 220.047 187.172 220.691 182.815 220.799C178.447 220.908 174.609 220.435 174.252 219.747C173.896 219.057 177.148 218.414 181.507 218.31Z" fill="white"/>
<path d="M190.141 234.74C194.548 234.615 198.419 235.086 198.796 235.793C199.173 236.5 195.907 237.178 191.49 237.306C187.062 237.434 183.169 236.962 182.8 236.251C182.432 235.542 185.722 234.865 190.141 234.74Z" fill="white"/>
<path d="M197.27 211.394C199.299 215.123 200.319 218.18 199.538 218.199C198.755 218.217 196.473 215.189 194.453 211.457C192.447 207.752 191.46 204.755 192.234 204.738C193.008 204.722 195.257 207.691 197.27 211.394Z" fill="white"/>
<path d="M199.849 201.844C204.083 201.76 207.808 202.225 208.176 202.886C208.546 203.546 205.413 204.153 201.171 204.24C196.919 204.327 193.173 203.86 192.811 203.196C192.452 202.534 195.605 201.93 199.849 201.844Z" fill="white"/>
<path d="M206.05 227.533C208.142 231.378 209.206 234.534 208.413 234.556C207.621 234.579 205.278 231.456 203.195 227.61C201.127 223.79 200.098 220.697 200.882 220.677C201.666 220.657 203.973 223.716 206.05 227.533Z" fill="white"/>
<path d="M215.53 210.986C217.614 214.695 218.685 217.738 217.911 217.756C217.136 217.775 214.814 214.762 212.74 211.049C210.68 207.363 209.641 204.381 210.408 204.365C211.173 204.348 213.461 207.303 215.53 210.986Z" fill="white"/>
<path d="M224.548 227.041C226.696 230.865 227.813 234.004 227.027 234.027C226.242 234.05 223.859 230.944 221.72 227.116C219.596 223.316 218.514 220.239 219.291 220.22C220.068 220.2 222.415 223.244 224.548 227.041Z" fill="white"/>
<path opacity="0.3" d="M208.57 217.658C212.859 217.554 216.636 218.022 217.016 218.702C217.397 219.384 214.229 220.021 209.931 220.128C205.624 220.235 201.824 219.765 201.451 219.082C201.081 218.399 204.272 217.762 208.57 217.658Z" fill="url(#paint24_linear_2768_26039)"/>
<path d="M217.563 233.963C221.907 233.839 225.74 234.309 226.133 235.009C226.525 235.712 223.321 236.383 218.967 236.51C214.602 236.636 210.747 236.167 210.363 235.461C209.98 234.757 213.208 234.087 217.563 233.963Z" fill="white"/>
<path opacity="0.3" d="M163.623 254.935C165.638 259.033 166.606 262.403 165.773 262.433C164.939 262.463 162.629 259.138 160.624 255.036C158.635 250.964 157.701 247.663 158.524 247.638C159.347 247.611 161.624 250.866 163.623 254.935Z" fill="url(#paint25_linear_2768_26039)"/>
<path opacity="0.3" d="M166.732 244.361C171.234 244.223 175.175 244.699 175.542 245.423C175.909 246.148 172.557 246.851 168.045 246.992C163.522 247.134 159.557 246.658 159.199 245.929C158.84 245.201 162.218 244.499 166.732 244.361Z" fill="url(#paint26_linear_2768_26039)"/>
<path opacity="0.3" d="M172.345 272.689C174.425 276.923 175.44 280.407 174.595 280.441C173.749 280.475 171.374 277.042 169.304 272.804C167.249 268.599 166.272 265.187 167.107 265.158C167.942 265.128 170.281 268.487 172.345 272.689Z" fill="url(#paint27_linear_2768_26039)"/>
<path opacity="0.3" d="M183.052 254.287C185.129 258.363 186.155 261.713 185.331 261.743C184.506 261.772 182.15 258.467 180.083 254.387C178.032 250.338 177.04 247.056 177.857 247.03C178.67 247.003 180.991 250.241 183.052 254.287Z" fill="url(#paint28_linear_2768_26039)"/>
<path opacity="0.3" d="M192.045 271.941C194.19 276.15 195.263 279.614 194.426 279.647C193.59 279.681 191.168 276.268 189.034 272.055C186.916 267.873 185.88 264.482 186.707 264.452C187.533 264.422 189.916 267.762 192.045 271.941Z" fill="url(#paint29_linear_2768_26039)"/>
<path opacity="0.3" d="M175.401 261.738C179.966 261.577 183.967 262.052 184.345 262.8C184.725 263.549 181.332 264.29 176.757 264.453C172.17 264.618 168.146 264.142 167.776 263.389C167.407 262.637 170.826 261.898 175.401 261.738Z" fill="url(#paint30_linear_2768_26039)"/>
<path opacity="0.3" d="M184.355 279.681C188.985 279.496 193.046 279.973 193.437 280.746C193.829 281.519 190.394 282.299 185.755 282.488C181.105 282.678 177.016 282.2 176.635 281.423C176.255 280.646 179.716 279.866 184.355 279.681Z" fill="url(#paint31_linear_2768_26039)"/>
<path d="M191.983 253.988C194.089 258.054 195.142 261.396 194.321 261.425C193.5 261.453 191.124 258.155 189.027 254.087C186.947 250.048 185.93 246.774 186.742 246.75C187.553 246.724 189.894 249.954 191.983 253.988Z" fill="white"/>
<path d="M194.745 243.502C199.183 243.365 203.084 243.838 203.467 244.556C203.85 245.276 200.563 245.972 196.116 246.111C191.658 246.251 187.733 245.778 187.358 245.056C186.984 244.334 190.296 243.639 194.745 243.502Z" fill="white"/>
<path opacity="0.3" d="M201.101 271.596C203.275 275.795 204.376 279.249 203.544 279.283C202.712 279.316 200.27 275.913 198.105 271.71C195.957 267.539 194.894 264.157 195.718 264.128C196.54 264.099 198.943 267.429 201.101 271.596Z" fill="url(#paint32_linear_2768_26039)"/>
<path d="M211.131 253.35C213.296 257.393 214.406 260.716 213.594 260.745C212.781 260.773 210.361 257.494 208.205 253.448C206.064 249.432 204.992 246.177 205.795 246.151C206.6 246.125 208.981 249.336 211.131 253.35Z" fill="white"/>
<path d="M220.51 270.859C222.747 275.034 223.905 278.468 223.081 278.5C222.257 278.533 219.77 275.15 217.544 270.972C215.333 266.825 214.215 263.462 215.029 263.433C215.844 263.403 218.291 266.715 220.51 270.859Z" fill="white"/>
<path d="M203.8 260.737C208.298 260.58 212.258 261.052 212.653 261.793C213.049 262.536 209.724 263.27 205.215 263.432C200.697 263.594 196.712 263.12 196.325 262.375C195.94 261.628 199.29 260.895 203.8 260.737Z" fill="white"/>
<path d="M213.15 278.532C217.711 278.35 221.73 278.822 222.138 279.589C222.546 280.356 219.182 281.128 214.611 281.314C210.03 281.501 205.984 281.027 205.584 280.256C205.186 279.486 208.577 278.715 213.15 278.532Z" fill="white"/>
<path d="M219.934 253.057C222.128 257.09 223.263 260.403 222.454 260.432C221.644 260.46 219.206 257.189 217.021 253.153C214.853 249.147 213.754 245.901 214.555 245.875C215.355 245.851 217.756 249.053 219.934 253.057Z" fill="white"/>
<path d="M222.357 242.656C226.732 242.522 230.594 242.99 230.992 243.703C231.391 244.417 228.168 245.107 223.784 245.245C219.389 245.383 215.504 244.912 215.114 244.195C214.724 243.479 217.971 242.791 222.357 242.656Z" fill="white"/>
<path d="M229.433 270.52C231.698 274.684 232.882 278.108 232.062 278.141C231.241 278.173 228.736 274.799 226.481 270.632C224.242 266.496 223.098 263.142 223.909 263.113C224.718 263.083 227.185 266.388 229.433 270.52Z" fill="white"/>
<path d="M238.805 252.428C241.057 256.438 242.247 259.734 241.447 259.762C240.646 259.79 238.165 256.536 235.922 252.523C233.694 248.538 232.543 245.31 233.335 245.285C234.128 245.261 236.57 248.446 238.805 252.428Z" fill="white"/>
<path d="M248.561 269.793C250.885 273.932 252.126 277.338 251.315 277.369C250.502 277.402 247.954 274.046 245.638 269.903C243.339 265.791 242.14 262.456 242.943 262.427C243.743 262.399 246.252 265.684 248.561 269.793Z" fill="white"/>
<path opacity="0.3" d="M231.785 259.752C236.218 259.595 240.138 260.065 240.55 260.8C240.961 261.537 237.701 262.264 233.259 262.423C228.806 262.583 224.861 262.113 224.458 261.372C224.055 260.634 227.34 259.908 231.785 259.752Z" fill="url(#paint33_linear_2768_26039)"/>
<path d="M241.517 277.399C246.011 277.22 249.989 277.69 250.414 278.449C250.84 279.21 247.542 279.976 243.039 280.158C238.525 280.341 234.522 279.871 234.105 279.107C233.69 278.344 237.013 277.58 241.517 277.399Z" fill="white"/>
<path opacity="0.3" d="M190.38 300.917L137.602 303.317L134.15 295.608L186.623 293.326L190.38 300.917Z" fill="url(#paint34_linear_2768_26039)"/>
<path opacity="0.3" d="M264.157 297.561L194.852 300.714L191.069 293.134L259.987 290.138L264.157 297.561Z" fill="url(#paint35_linear_2768_26039)"/>
<path d="M126.236 263.379C126.144 261.463 127.425 260.043 129.635 259.935C132.524 259.793 135.926 261.948 137.227 264.762C135.926 261.948 137.23 259.562 140.145 259.419C142.387 259.309 144.939 260.554 146.613 262.416C152.829 269.132 142.494 276.14 142.494 276.14C142.494 276.14 126.401 270.279 126.236 263.379Z" fill="white"/>
<path opacity="0.6" d="M113.471 160.435C103.324 149.455 87.3638 136.926 60.4943 125.226H36.8471C27.6028 125.226 22.4286 130.991 25.3692 138.197L114.357 356.295C118.84 367.282 131.786 375.748 143.139 375.022L239.615 368.86C210.074 347.083 179.144 319.007 159.166 285.653C125.24 229.012 148.186 198.006 113.471 160.435Z" fill="white"/>
<path d="M94.3318 135.216C94.2607 135.216 94.1896 135.213 94.1184 135.205C93.1624 135.102 92.3913 134.335 92.2448 133.338L80.3529 52.3286L68.0613 110.879C67.8593 111.843 67.0669 112.548 66.1066 112.617C65.1378 112.69 64.2401 112.104 63.8745 111.179L53.051 83.7192L46.7174 96.3679C46.3347 97.1333 45.5494 97.6028 44.6915 97.5786L31.6331 97.2187C30.3541 97.1831 29.3156 96.1161 29.3156 94.8343C29.3156 93.5525 30.3541 92.5453 31.6331 92.5851L43.2874 92.9464L51.2542 77.0982C51.6483 76.3129 52.4634 75.8634 53.3469 75.9288C54.2261 76.0014 55.0029 76.5903 55.3329 77.4325L65.263 102.717L78.5988 39.4124C78.8179 38.3739 79.7184 37.6995 80.7683 37.8062C81.804 37.9144 82.6704 38.7722 82.8269 39.8477L95.1769 124.247L109.045 85.0408C109.344 84.1944 110.115 83.6566 110.974 83.6907C111.833 83.7249 112.6 84.3238 112.897 85.1902L119.276 103.77L126.963 84.7705C127.27 84.0108 127.965 83.5286 128.744 83.5357C129.515 83.5428 130.241 84.035 130.588 84.7976L135.597 95.806L160.28 96.5699L165.837 82.9282C166.141 82.1799 166.845 81.7147 167.572 81.7616C168.321 81.8015 168.992 82.3293 169.284 83.106L177.394 104.722L187.926 48.9413C188.104 48.0009 188.845 47.3764 189.702 47.4375C189.712 47.4375 189.721 47.439 189.731 47.4404C190.599 47.5186 191.333 48.2812 191.484 49.2585L203.144 124.957L213.605 89.1409C213.832 88.3627 214.454 87.842 215.171 87.8306C215.891 87.8278 216.55 88.3186 216.84 89.0854L223.535 106.78L230.156 89.6004C230.405 88.956 230.935 88.5306 231.544 88.4865C232.152 88.4438 232.744 88.7895 233.091 89.3913L238.63 98.9955L257.805 99.5888L263.141 87.6727C263.429 87.0311 264.009 86.6769 264.614 86.711C265.225 86.7636 265.77 87.2345 266.015 87.9203L272.899 107.2L281.886 55.5807C282.04 54.6987 282.68 54.0799 283.432 54.1865C284.175 54.2591 284.8 54.9676 284.92 55.8724L294.264 125.346L300.207 102.201C300.405 101.433 300.982 100.923 301.634 100.945L335.262 101.986C336.037 102.01 336.666 102.837 336.666 103.833C336.666 104.828 336.039 105.619 335.262 105.598L302.728 104.7L295.249 133.91C295.037 134.735 294.39 135.277 293.698 135.213C292.998 135.152 292.423 134.505 292.308 133.648L283.223 66.2847L274.963 113.865C274.823 114.674 274.268 115.273 273.588 115.346C272.906 115.416 272.259 114.948 271.984 114.182L264.417 93.0546L260.201 102.501C259.922 103.125 259.374 103.507 258.777 103.49L237.754 102.909C237.205 102.894 236.69 102.562 236.377 102.021L232.025 94.5L225.1 112.529C224.825 113.243 224.213 113.696 223.536 113.683C222.859 113.67 222.244 113.195 221.969 112.469L215.487 95.3934L204.295 133.835C204.039 134.714 203.298 135.286 202.484 135.215C201.673 135.146 201.006 134.458 200.865 133.542L189.546 60.2783L179.797 112.075C179.631 112.957 178.973 113.606 178.171 113.679C177.37 113.758 176.606 113.232 176.289 112.391L167.518 89.0897L163.247 99.6101C162.943 100.358 162.266 100.828 161.516 100.807L134.376 100.058C133.625 100.037 132.938 99.5589 132.602 98.822L128.945 90.8125L121.004 110.508C120.678 111.317 119.922 111.829 119.091 111.785C118.261 111.748 117.527 111.173 117.238 110.334L110.978 92.1612L96.3079 133.779C95.9963 134.647 95.2039 135.216 94.3318 135.216Z" fill="#D8DEE8"/>
<path d="M320.529 376.469C320.529 376.469 323.087 377.748 323.087 379.027C323.087 380.306 319.89 383.503 318.611 384.782C317.332 386.061 316.054 385.421 315.415 384.782C314.776 384.143 315.415 384.143 316.694 382.864C317.971 381.585 320.529 376.469 320.529 376.469Z" fill="url(#paint36_linear_2768_26039)"/>
<path d="M320.529 370.076C320.529 370.076 321.168 375.831 321.808 377.748C321.808 377.748 321.169 378.389 319.89 378.389C319.89 378.389 317.973 374.552 317.333 372.634L320.529 370.076Z" fill="url(#paint37_linear_2768_26039)"/>
<path d="M288.56 389.896C288.56 389.896 290.477 391.175 288.56 393.093C286.642 395.011 284.084 396.29 282.166 396.29C281.419 396.29 280.673 396.096 280.038 395.859C279.184 395.54 279.055 394.389 279.815 393.883C280.62 393.345 281.796 392.639 283.445 391.814C287.281 389.896 288.56 389.896 288.56 389.896Z" fill="url(#paint38_linear_2768_26039)"/>
<path d="M292.395 382.863C292.395 382.863 289.46 389.324 289.021 390.537C288.558 391.814 287.202 391.177 286.601 390.537C286.601 390.537 287.918 384.142 288.558 382.223L292.395 382.863Z" fill="url(#paint39_linear_2768_26039)"/>
<path d="M287.919 282.48C277.018 289.663 284.246 315.966 286.64 324.68C289.7 335.816 297.111 355.326 317.331 375.19C318.61 374.764 319.889 374.338 321.168 373.912C321.96 370.122 322.73 364.285 321.807 357.288C321.62 355.875 320.957 351.32 318.61 345.14C314.755 334.992 311.219 333.254 309.019 327.876C302.941 313.021 319.707 301.303 314.134 290.152C309.957 281.795 295.195 277.687 287.919 282.48Z" fill="url(#paint40_linear_2768_26039)"/>
<path d="M327.561 271.611C326.79 287.621 323.488 299.779 320.528 308.056C314.76 324.18 309.659 327.343 307.101 342.583C305.673 351.094 306.334 355.642 303.264 366.241C301.372 372.772 297.828 384.554 291.116 385.422C289.577 385.621 288.224 385.2 287.279 384.783C288.76 373.633 290.055 362.119 291.116 350.256C293.624 322.221 294.525 295.707 294.313 270.972C305.397 271.184 316.479 271.397 327.561 271.611Z" fill="url(#paint41_linear_2768_26039)"/>
<path d="M257.869 189.129C253.264 188.446 246.589 188.107 239.326 190.408C227.8 194.058 224.353 201.326 216.308 205.113C209.267 208.428 197.828 209.488 178.584 199.359C178.37 201.063 178.157 202.769 177.945 204.473C189.475 219.814 199.326 223.255 206.078 223.655C217.405 224.326 222.654 216.596 238.047 217.9C248.616 218.795 252.558 222.983 256.59 220.458C260.191 218.203 262.946 211.164 257.869 189.129Z" fill="white"/>
<path d="M352.498 173.784C359.01 177.639 358.741 179.898 363.366 181.456C371.9 184.33 376.512 177.887 383.827 180.177C390.643 182.311 395.737 190.752 395.975 198.08C396.375 210.427 382.956 218.788 371.039 226.213C362.998 231.222 357.649 234.448 351.217 233.246C342.476 231.612 342.065 223.729 333.315 221.737C323.198 219.435 318.878 228.862 308.378 227.492C300.359 226.446 299.929 220.56 287.279 210.228C269.654 195.832 258.562 197.515 255.95 187.85C253.991 180.606 258.021 171.515 264.262 168.028C269.831 164.918 276.11 166.851 284.083 169.307C299.82 174.152 300.15 180.233 308.38 180.176C320.073 180.095 322.167 167.8 335.234 168.028C343.006 168.165 350.594 172.657 352.498 173.784Z" fill="url(#paint42_linear_2768_26039)"/>
<path d="M296.871 201.278C291.053 196.451 285.512 194.259 282.165 192.965C278.416 191.797 259.934 186.211 250.195 189.769C247.542 190.738 246.59 192.001 246.358 192.327C243.947 195.711 246.564 199.891 246.997 207.671C247.277 212.706 246.314 213.36 246.358 217.261C246.446 225.267 250.579 230.109 254.671 237.083C259.508 245.327 269.251 262.447 268.098 280.562C267.732 286.304 266.511 289.402 268.736 292.071C272.39 296.453 279.349 292.501 290.476 295.908C299.044 298.531 297.811 301.761 305.182 303.58C313.767 305.7 325.89 303.896 332.676 296.547C337.035 291.825 336.766 287.442 340.988 286.316C346.081 284.959 350.166 290.357 353.776 288.234C355.769 287.063 354.91 285.194 357.613 280.562C360.733 275.214 363.379 275.132 363.368 272.89C363.345 268.542 353.396 268.725 346.104 260.101C341.854 255.075 343.357 252.793 339.07 247.953C333.677 241.862 328.822 242.683 322.447 239.002C307.957 230.638 313.71 215.251 296.871 201.278Z" fill="white"/>
<path d="M280.887 192.965C280.887 192.965 268.739 187.85 258.509 189.129C258.509 189.129 257.23 198.08 259.148 203.196C259.148 203.196 271.936 194.244 280.887 192.965Z" fill="url(#paint43_linear_2768_26039)"/>
<path d="M268.463 179.54C268.463 179.54 269.3 184.56 271.811 187.071C274.322 189.582 277.668 191.255 279.342 192.092C281.015 192.928 276.831 194.603 272.649 194.603C268.465 194.603 259.26 192.092 259.26 189.582C259.26 187.071 262.608 188.746 264.281 187.909C268.022 186.039 264.281 179.541 264.281 179.541H268.463V179.54Z" fill="url(#paint44_linear_2768_26039)"/>
<g opacity="0.15">
<path d="M176.966 199.359C180.774 201.363 184.271 202.924 187.495 204.12C192.194 213.811 196.924 216.648 200.623 217.261C206.123 218.173 207.704 213.912 221.084 212.147C227.456 211.306 230.24 211.857 235.151 209.589C239.834 207.427 241.568 204.954 243.463 205.754C246.061 206.849 244.271 212.126 246.66 219.819C247.015 220.963 250.605 233.442 256.251 233.886C260.492 234.219 261.064 227.391 269.31 223.754C272.535 222.333 276.053 222.091 283.089 221.61C289.846 221.148 293.224 220.917 295.488 221.458C308.559 224.585 306.313 244.36 322.108 252.428C329.246 256.074 332.38 253.83 336.814 258.182C342.926 264.179 340.624 271.034 345.127 277.364C346.855 279.794 349.652 282.231 354.388 283.949C353.557 286.217 353.573 287.403 352.16 288.234C348.55 290.355 344.465 284.959 339.372 286.316C335.151 287.442 335.419 291.825 331.06 296.547C324.275 303.896 312.153 305.7 303.566 303.58C296.195 301.761 297.428 298.531 288.86 295.908C277.733 292.501 270.775 296.453 267.12 292.071C264.895 289.402 266.116 286.305 266.481 280.562C267.634 262.447 257.892 245.329 253.055 237.083C249.357 230.781 245.636 226.21 244.887 219.481C242.617 218.835 239.878 218.193 236.431 217.901C221.039 216.597 215.788 224.328 204.461 223.656C197.71 223.255 187.859 219.814 176.329 204.475C176.539 202.77 176.753 201.065 176.966 199.359Z" fill="url(#paint45_linear_2768_26039)"/>
</g>
<path d="M268.096 182.198C268.096 182.198 266.179 185.376 262.655 184.427C259.499 183.577 260.639 175.52 262.985 174.409C263.767 174.037 265.265 174.041 266.312 174.575C267.049 174.951 269.115 177.104 268.271 179.795C269.024 179.503 269.722 179.648 269.926 180.015C270.183 180.482 269.587 181.199 269.452 181.362C268.986 181.926 268.378 182.125 268.096 182.198Z" fill="url(#paint46_linear_2768_26039)"/>
<path d="M274.796 233.497C272.535 238.297 282.922 249.476 294.465 254.784C296.817 255.865 313.708 263.631 321.235 256.164C327.455 249.992 323.44 237.232 322.007 232.677C314.97 210.309 293.358 198.929 284.3 194.826C277.541 211.729 281.522 219.259 283.088 221.61C284.726 224.067 289.294 229.227 294.145 233.773C297.558 236.969 299.683 238.526 299.397 239.025C299.042 239.645 295.041 238.473 279.503 230.91C277.702 231.202 275.568 231.858 274.796 233.497Z" fill="white"/>
<path d="M236.368 205.444L263.871 208.02C264.447 208.074 264.932 208.477 265.092 209.033L275.355 244.872C275.626 245.821 274.862 246.747 273.879 246.66L246.15 244.213C245.567 244.162 245.076 243.754 244.92 243.191L234.882 207.223C234.617 206.271 235.387 205.351 236.368 205.444Z" fill="url(#paint47_linear_2768_26039)"/>
<path d="M278.72 232.374C278.72 232.374 269.248 222.683 265.395 221.251C261.541 219.819 264.952 230.041 267.211 231.482C269.469 232.923 270.351 233.475 272.114 233.694C273.876 233.915 273.876 233.915 273.876 233.915L276.19 235.148C276.187 235.15 279.16 234.797 278.72 232.374Z" fill="url(#paint48_linear_2768_26039)"/>
<path opacity="0.3" d="M254.674 236.441C253.636 230.776 256.833 226.383 253.77 221.073C250.619 215.61 245.088 216.532 241.114 212.032C239.85 210.599 238.714 208.57 238.157 205.61L236.368 205.442C235.387 205.35 234.619 206.27 234.883 207.22L244.921 243.188C245.079 243.751 245.569 244.159 246.152 244.21L260.233 245.452C256.65 242.239 255.169 239.144 254.674 236.441Z" fill="url(#paint49_linear_2768_26039)"/>
<path d="M178.342 199.901C178.342 199.901 176.427 199.262 174.512 198.625C172.597 197.986 170.682 199.901 169.406 201.816C168.13 203.731 170.045 204.369 171.321 203.731C172.597 203.092 173.875 201.177 175.151 202.455C176.427 203.731 179.618 202.455 178.342 199.901Z" fill="url(#paint50_linear_2768_26039)"/>
<defs>
<linearGradient id="paint0_linear_2768_26039" x1="192.287" y1="171.323" x2="361.155" y2="171.323" gradientUnits="userSpaceOnUse">
<stop stop-color="#15AAFF"/>
<stop offset="0.9964" stop-color="#0092FF"/>
</linearGradient>
<linearGradient id="paint1_linear_2768_26039" x1="342.411" y1="151.713" x2="153.075" y2="180.542" gradientUnits="userSpaceOnUse">
<stop stop-color="#15AAFF"/>
<stop offset="0.9964" stop-color="#006BA8"/>
</linearGradient>
<linearGradient id="paint2_linear_2768_26039" x1="314.233" y1="153.649" x2="151.486" y2="178.43" gradientUnits="userSpaceOnUse">
<stop stop-color="#AA80F9"/>
<stop offset="0.9964" stop-color="#6165D7"/>
</linearGradient>
<linearGradient id="paint3_linear_2768_26039" x1="113.843" y1="412.952" x2="235.108" y2="146.328" gradientUnits="userSpaceOnUse">
<stop offset="0.494" stop-color="#EBEFF2"/>
<stop offset="1" stop-color="white"/>
</linearGradient>
<linearGradient id="paint4_linear_2768_26039" x1="182.041" y1="138.146" x2="123.44" y2="295.384" gradientUnits="userSpaceOnUse">
<stop stop-color="#075C9B"/>
<stop offset="1" stop-color="#15AAFF"/>
</linearGradient>
<linearGradient id="paint5_linear_2768_26039" x1="225.624" y1="317.882" x2="204.319" y2="365.271" gradientUnits="userSpaceOnUse">
<stop offset="0.494" stop-color="#EBEFF2"/>
<stop offset="1" stop-color="white"/>
</linearGradient>
<linearGradient id="paint6_linear_2768_26039" x1="230.862" y1="303.125" x2="211.205" y2="347.093" gradientUnits="userSpaceOnUse">
<stop offset="0.494" stop-color="#EBEFF2"/>
<stop offset="1" stop-color="white"/>
</linearGradient>
<linearGradient id="paint7_linear_2768_26039" x1="248.656" y1="319.864" x2="244.734" y2="356.989" gradientUnits="userSpaceOnUse">
<stop offset="0.494" stop-color="#EBEFF2"/>
<stop offset="1" stop-color="white"/>
</linearGradient>
<linearGradient id="paint8_linear_2768_26039" x1="176.711" y1="315.184" x2="172.689" y2="353.259" gradientUnits="userSpaceOnUse">
<stop offset="0.494" stop-color="#EBEFF2"/>
<stop offset="1" stop-color="white"/>
</linearGradient>
<linearGradient id="paint9_linear_2768_26039" x1="97.3882" y1="167.435" x2="100.357" y2="166.062" gradientUnits="userSpaceOnUse">
<stop stop-color="#444B8C"/>
<stop offset="0.9964" stop-color="#26264F"/>
</linearGradient>
<linearGradient id="paint10_linear_2768_26039" x1="96.3298" y1="157.55" x2="112.442" y2="150.097" gradientUnits="userSpaceOnUse">
<stop stop-color="#444B8C"/>
<stop offset="0.9964" stop-color="#26264F"/>
</linearGradient>
<linearGradient id="paint11_linear_2768_26039" x1="106.406" y1="186.702" x2="109.432" y2="185.302" gradientUnits="userSpaceOnUse">
<stop stop-color="#444B8C"/>
<stop offset="0.9964" stop-color="#26264F"/>
</linearGradient>
<linearGradient id="paint12_linear_2768_26039" x1="105.211" y1="176.38" x2="121.628" y2="168.785" gradientUnits="userSpaceOnUse">
<stop stop-color="#444B8C"/>
<stop offset="0.9964" stop-color="#26264F"/>
</linearGradient>
<linearGradient id="paint13_linear_2768_26039" x1="114.437" y1="195.938" x2="131.17" y2="188.197" gradientUnits="userSpaceOnUse">
<stop stop-color="#444B8C"/>
<stop offset="0.9964" stop-color="#26264F"/>
</linearGradient>
<linearGradient id="paint14_linear_2768_26039" x1="131.267" y1="167.073" x2="134.234" y2="165.701" gradientUnits="userSpaceOnUse">
<stop stop-color="#444B8C"/>
<stop offset="0.9964" stop-color="#26264F"/>
</linearGradient>
<linearGradient id="paint15_linear_2768_26039" x1="164.028" y1="185.803" x2="167.09" y2="184.386" gradientUnits="userSpaceOnUse">
<stop stop-color="#444B8C"/>
<stop offset="0.9964" stop-color="#26264F"/>
</linearGradient>
<linearGradient id="paint16_linear_2768_26039" x1="172.859" y1="175.505" x2="188.721" y2="168.168" gradientUnits="userSpaceOnUse">
<stop stop-color="#444B8C"/>
<stop offset="0.9964" stop-color="#26264F"/>
</linearGradient>
<linearGradient id="paint17_linear_2768_26039" x1="139.926" y1="212.687" x2="142.358" y2="211.563" gradientUnits="userSpaceOnUse">
<stop stop-color="#444B8C"/>
<stop offset="0.9964" stop-color="#26264F"/>
</linearGradient>
<linearGradient id="paint18_linear_2768_26039" x1="138.668" y1="204.131" x2="151.803" y2="198.055" gradientUnits="userSpaceOnUse">
<stop stop-color="#444B8C"/>
<stop offset="0.9964" stop-color="#26264F"/>
</linearGradient>
<linearGradient id="paint19_linear_2768_26039" x1="147.936" y1="229.086" x2="150.406" y2="227.944" gradientUnits="userSpaceOnUse">
<stop stop-color="#444B8C"/>
<stop offset="0.9964" stop-color="#26264F"/>
</linearGradient>
<linearGradient id="paint20_linear_2768_26039" x1="158.711" y1="212.267" x2="161.154" y2="211.137" gradientUnits="userSpaceOnUse">
<stop stop-color="#444B8C"/>
<stop offset="0.9964" stop-color="#26264F"/>
</linearGradient>
<linearGradient id="paint21_linear_2768_26039" x1="166.974" y1="228.579" x2="169.457" y2="227.431" gradientUnits="userSpaceOnUse">
<stop stop-color="#444B8C"/>
<stop offset="0.9964" stop-color="#26264F"/>
</linearGradient>
<linearGradient id="paint22_linear_2768_26039" x1="146.575" y1="220.224" x2="159.912" y2="214.054" gradientUnits="userSpaceOnUse">
<stop stop-color="#444B8C"/>
<stop offset="0.9964" stop-color="#26264F"/>
</linearGradient>
<linearGradient id="paint23_linear_2768_26039" x1="154.731" y1="236.823" x2="168.276" y2="230.558" gradientUnits="userSpaceOnUse">
<stop stop-color="#444B8C"/>
<stop offset="0.9964" stop-color="#26264F"/>
</linearGradient>
<linearGradient id="paint24_linear_2768_26039" x1="201.365" y1="218.894" x2="214.332" y2="212.896" gradientUnits="userSpaceOnUse">
<stop stop-color="#444B8C"/>
<stop offset="0.9964" stop-color="#26264F"/>
</linearGradient>
<linearGradient id="paint25_linear_2768_26039" x1="160.611" y1="255.035" x2="163.142" y2="253.864" gradientUnits="userSpaceOnUse">
<stop stop-color="#444B8C"/>
<stop offset="0.9964" stop-color="#26264F"/>
</linearGradient>
<linearGradient id="paint26_linear_2768_26039" x1="159.082" y1="245.677" x2="172.737" y2="239.361" gradientUnits="userSpaceOnUse">
<stop stop-color="#444B8C"/>
<stop offset="0.9964" stop-color="#26264F"/>
</linearGradient>
<linearGradient id="paint27_linear_2768_26039" x1="169.289" y1="272.8" x2="171.861" y2="271.61" gradientUnits="userSpaceOnUse">
<stop stop-color="#444B8C"/>
<stop offset="0.9964" stop-color="#26264F"/>
</linearGradient>
<linearGradient id="paint28_linear_2768_26039" x1="180.048" y1="254.386" x2="182.592" y2="253.209" gradientUnits="userSpaceOnUse">
<stop stop-color="#444B8C"/>
<stop offset="0.9964" stop-color="#26264F"/>
</linearGradient>
<linearGradient id="paint29_linear_2768_26039" x1="188.996" y1="272.05" x2="191.584" y2="270.853" gradientUnits="userSpaceOnUse">
<stop stop-color="#444B8C"/>
<stop offset="0.9964" stop-color="#26264F"/>
</linearGradient>
<linearGradient id="paint30_linear_2768_26039" x1="167.64" y1="263.096" x2="181.514" y2="256.678" gradientUnits="userSpaceOnUse">
<stop stop-color="#444B8C"/>
<stop offset="0.9964" stop-color="#26264F"/>
</linearGradient>
<linearGradient id="paint31_linear_2768_26039" x1="176.48" y1="281.086" x2="190.579" y2="274.564" gradientUnits="userSpaceOnUse">
<stop stop-color="#444B8C"/>
<stop offset="0.9964" stop-color="#26264F"/>
</linearGradient>
<linearGradient id="paint32_linear_2768_26039" x1="198.051" y1="271.705" x2="200.652" y2="270.502" gradientUnits="userSpaceOnUse">
<stop stop-color="#444B8C"/>
<stop offset="0.9964" stop-color="#26264F"/>
</linearGradient>
<linearGradient id="paint33_linear_2768_26039" x1="224.326" y1="261.089" x2="237.8" y2="254.856" gradientUnits="userSpaceOnUse">
<stop stop-color="#444B8C"/>
<stop offset="0.9964" stop-color="#26264F"/>
</linearGradient>
<linearGradient id="paint34_linear_2768_26039" x1="135.29" y1="298.322" x2="179.681" y2="277.788" gradientUnits="userSpaceOnUse">
<stop stop-color="#444B8C"/>
<stop offset="0.9964" stop-color="#26264F"/>
</linearGradient>
<linearGradient id="paint35_linear_2768_26039" x1="192.128" y1="295.425" x2="250.647" y2="268.356" gradientUnits="userSpaceOnUse">
<stop stop-color="#444B8C"/>
<stop offset="0.9964" stop-color="#26264F"/>
</linearGradient>
<linearGradient id="paint36_linear_2768_26039" x1="323.086" y1="380.995" x2="315.163" y2="380.995" gradientUnits="userSpaceOnUse">
<stop stop-color="#444B8C"/>
<stop offset="0.9964" stop-color="#26264F"/>
</linearGradient>
<linearGradient id="paint37_linear_2768_26039" x1="317.707" y1="390.461" x2="320.904" y2="364.246" gradientUnits="userSpaceOnUse">
<stop stop-color="#FFC444"/>
<stop offset="0.9964" stop-color="#F36F56"/>
</linearGradient>
<linearGradient id="paint38_linear_2768_26039" x1="289.412" y1="393.094" x2="279.313" y2="393.094" gradientUnits="userSpaceOnUse">
<stop stop-color="#444B8C"/>
<stop offset="0.9964" stop-color="#26264F"/>
</linearGradient>
<linearGradient id="paint39_linear_2768_26039" x1="287.488" y1="392.781" x2="296.439" y2="362.09" gradientUnits="userSpaceOnUse">
<stop stop-color="#FFC444"/>
<stop offset="0.9964" stop-color="#F36F56"/>
</linearGradient>
<linearGradient id="paint40_linear_2768_26039" x1="323.895" y1="327.533" x2="304.234" y2="327.853" gradientUnits="userSpaceOnUse">
<stop stop-color="#075C9B"/>
<stop offset="0.9964" stop-color="#15AAFF"/>
</linearGradient>
<linearGradient id="paint41_linear_2768_26039" x1="295.725" y1="319.147" x2="326.096" y2="342.644" gradientUnits="userSpaceOnUse">
<stop stop-color="#15AAFF"/>
<stop offset="0.9964" stop-color="#075C9B"/>
</linearGradient>
<linearGradient id="paint42_linear_2768_26039" x1="300" y1="208.109" x2="417.008" y2="135.219" gradientUnits="userSpaceOnUse">
<stop stop-color="#444B8C"/>
<stop offset="0.9964" stop-color="#26264F"/>
</linearGradient>
<linearGradient id="paint43_linear_2768_26039" x1="280.887" y1="196.06" x2="258.091" y2="196.06" gradientUnits="userSpaceOnUse">
<stop stop-color="#15AAFF"/>
<stop offset="0.9964" stop-color="#075C9B"/>
</linearGradient>
<linearGradient id="paint44_linear_2768_26039" x1="273.638" y1="215.983" x2="264.015" y2="158.246" gradientUnits="userSpaceOnUse">
<stop stop-color="#FFC444"/>
<stop offset="0.9964" stop-color="#F36F56"/>
</linearGradient>
<linearGradient id="paint45_linear_2768_26039" x1="361.749" y1="251.884" x2="176.327" y2="251.884" gradientUnits="userSpaceOnUse">
<stop stop-color="#AA80F9"/>
<stop offset="0.9964" stop-color="#6165D7"/>
</linearGradient>
<linearGradient id="paint46_linear_2768_26039" x1="266.211" y1="176.345" x2="257.947" y2="208.613" gradientUnits="userSpaceOnUse">
<stop stop-color="#FFC444"/>
<stop offset="0.9964" stop-color="#F36F56"/>
</linearGradient>
<linearGradient id="paint47_linear_2768_26039" x1="246.622" y1="300.648" x2="250.57" y2="265.996" gradientUnits="userSpaceOnUse">
<stop stop-color="#15AAFF"/>
<stop offset="1" stop-color="#075C9B"/>
</linearGradient>
<linearGradient id="paint48_linear_2768_26039" x1="270.684" y1="224.84" x2="284.644" y2="310.211" gradientUnits="userSpaceOnUse">
<stop stop-color="#FFC444"/>
<stop offset="0.9964" stop-color="#F36F56"/>
</linearGradient>
<linearGradient id="paint49_linear_2768_26039" x1="239.136" y1="299.795" x2="243.084" y2="265.143" gradientUnits="userSpaceOnUse">
<stop stop-color="#15AAFF"/>
<stop offset="1" stop-color="#075C9B"/>
</linearGradient>
<linearGradient id="paint50_linear_2768_26039" x1="169.402" y1="194.024" x2="187.912" y2="226.736" gradientUnits="userSpaceOnUse">
<stop stop-color="#FFC444"/>
<stop offset="0.9964" stop-color="#F36F56"/>
</linearGradient>
</defs>
</svg>
